Based on a true story of a fishing boat out of Kodiak, Alaska that encountered a storm and was hit by a rogue wave. The crew, believing that their vessel was about to capsize, abandoned ship in the Bering sea.
 
http://www.imdb.com/title/tt1318046/

Subtitles (srt) : Dutch.

Covers included.

Tommy Wallace (Sebastian Pigott) sluit zich aan bij de bemanning van de St. Christopher, een groep vissers op zoek naar kostbare koningskrab in de Beringzee bij Alaska. Al op zijn eerste vaart worden Tommy en de bemanning overvallen door een verschrikkelijke storm. Terwijl het schip zinkt, moet de bemanning vechten voor hun leven tegen de razende storm en de metershoge golven van het ijskoude water.
 
http://www.moviemeter.nl/film/65195

Ondertitels (srt) : Nederlands.

Hoesjes bijgevoegd.

General
Complete name                    : Deadliest Sea-AC3-XviD-DVDRip[Eng]2009 2Lions-TeamDeadliest Sea-AC3-XviD-DVDRip[Eng]2009.avi
Format                           : AVI
Format/Info                      : Audio Video Interleave
File size                        : 1.36 GiB
Duration                         : 1h 23mn
Overall bit rate                 : 2 334 Kbps
Writing application              : VirtualDubMod 1.5.4.1 (build 2178/release)
Writing library                  : VirtualDubMod build 2178/release

Video
ID                               : 0
Format                           : MPEG-4 Visual
Format profile                   : Simple@L3
Format settings, BVOP            : No
Format settings, QPel            : No
Format settings, GMC             : No warppoints
Format settings, Matrix          : Default (H.263)
Codec ID                         : XVID
Codec ID/Hint                    : XviD
Duration                         : 1h 23mn
Bit rate                         : 1 940 Kbps
Width                            : 720 pixels
Height                           : 400 pixels
Display aspect ratio             : 16:9
Frame rate                       : 25.000 fps
Resolution                       : 24 bits
Colorimetry                      : 4:2:0
Scan type                        : Progressive
Bits/(Pixel*Frame)               : 0.269
Stream size                      : 1.13 GiB (83%)
Writing library                  : XviD 1.1.2 (UTC 2006-11-01)

Audio
ID                               : 1
Format                           : AC-3
Format/Info                      : Audio Coding 3
Codec ID                         : 2000
Duration                         : 1h 23mn
Bit rate mode                    : Constant
Bit rate                         : 384 Kbps
Channel(s)                       : 6 channels
Channel positions                : Front: L C R, Surround: L R, LFE
Sampling rate                    : 48.0 KHz
Stream size                      : 229 MiB (16%)
Alignment                        : Split accross interleaves
Interleave, duration             : 40 ms (1.00 video frame)
Interleave, preload duration     : 500 ms

Brought to you by 
2Lions Team

meer zien??
Kom dan eens kijken op ons forum 
                    
http://www.2lions.ons-forum.nl

2Lions the site to be for all your Dutch MOVIES and more

******************************************

DON T HIT AND RUN Niet gelijk afhaken als de FILM binnen is blijf seeden. 

Don`t quit after you finished the download, but keep seeding

There are fake torrents from uploaders who use our team name.
Those are not ours, or members from our team.
We 2Lions-Team are not responsible for the fake posts on our name

Wij 2Lions-Team zijn niet verantwoordelijk voor die zieke FAKE posten die op onze naam worden gedaan

Please check our site !!!

to the fakers , get a life !!!